<svg preserveAspectRatio="none" width="100%" height="100%" overflow="visible" style="display: block;" viewBox="0 0 30 35" fill="none" xmlns="http://www.w3.org/2000/svg">
<path id="Vector" d="M3.03 34.1831C2.16625 34.1831 1.44562 33.8944 0.868125 33.3169C0.290625 32.7394 0.00125 32.0188 0 31.155V7.21126C0 6.34876 0.289375 5.62876 0.868125 5.05126C1.44687 4.47376 2.1675 4.18439 3.03 4.18314H6.34688V1.01064C6.34688 0.719388 6.4425 0.478138 6.63375 0.286888C6.825 0.0956377 7.06562 1.29311e-05 7.35562 1.29311e-05C7.64562 1.29311e-05 7.88688 0.0956377 8.07938 0.286888C8.27188 0.478138 8.3675 0.719388 8.36625 1.01064V4.18314H21.78V0.939388C21.78 0.671888 21.8694 0.448138 22.0481 0.268138C22.2269 0.0881377 22.45 -0.00123707 22.7175 1.29311e-05C22.985 0.00126293 23.2075 0.0906377 23.385 0.268138C23.5625 0.445638 23.6525 0.668763 23.655 0.937513V4.18314H26.9719C27.8344 4.18314 28.555 4.47251 29.1338 5.05126C29.7125 5.63001 30.0012 6.35064 30 7.21314V31.155C30 32.0175 29.7113 32.7381 29.1338 33.3169C28.5563 33.8956 27.835 34.1844 26.97 34.1831H3.03ZM3.03 32.3081H26.9719C27.2594 32.3081 27.5238 32.1881 27.765 31.9481C28.0063 31.7081 28.1262 31.4431 28.125 31.1531V14.7131H1.875V31.155C1.875 31.4425 1.995 31.7069 2.235 31.9481C2.475 32.1894 2.73937 32.3094 3.02812 32.3081M1.875 12.8363H28.125V7.21126C28.125 6.92376 28.005 6.65939 27.765 6.41814C27.525 6.17689 27.26 6.05689 26.97 6.05814H3.03C2.74125 6.05814 2.47625 6.17814 2.235 6.41814C1.99375 6.65814 1.87375 6.92314 1.875 7.21314V12.8363Z" fill="var(--fill-0, #2BA492)"/>
</svg>
