<svg preserveAspectRatio="none" width="100%" height="100%" overflow="visible" style="display: block;" viewBox="0 0 35 31" fill="none" xmlns="http://www.w3.org/2000/svg">
<path id="Vector" d="M7.96183 20.1997C8.35794 20.1997 8.70294 20.0528 8.99683 19.7589C9.28944 19.465 9.43575 19.12 9.43575 18.7239C9.43575 18.3278 9.28881 17.9828 8.99492 17.6889C8.70103 17.395 8.35603 17.2487 7.95992 17.25C7.56381 17.2513 7.22008 17.3982 6.92875 17.6908C6.63742 17.9834 6.49047 18.3284 6.48792 18.7258C6.48792 19.1207 6.63486 19.465 6.92875 19.7589C7.22264 20.0528 7.567 20.1997 7.96183 20.1997ZM7.96183 14.8906C8.35794 14.8906 8.70294 14.7436 8.99683 14.4497C9.28944 14.1559 9.43575 13.8115 9.43575 13.4167C9.43575 13.0218 9.28881 12.6768 8.99492 12.3817C8.70103 12.0865 8.35603 11.9396 7.95992 11.9408C7.56381 11.9421 7.22008 12.0891 6.92875 12.3817C6.63742 12.6743 6.49047 13.0193 6.48792 13.4167C6.48536 13.8141 6.6323 14.1591 6.92875 14.4517C7.22519 14.7443 7.56956 14.8912 7.96183 14.8925M7.96183 9.58333C8.35794 9.58333 8.70294 9.43639 8.99683 9.1425C9.29072 8.84861 9.43703 8.50361 9.43575 8.1075C9.43447 7.71139 9.28753 7.36703 8.99492 7.07442C8.70231 6.78181 8.35731 6.63486 7.95992 6.63358C7.56253 6.63231 7.2188 6.77925 6.92875 7.07442C6.63869 7.36958 6.49175 7.71458 6.48792 8.10942C6.48408 8.50425 6.63103 8.84925 6.92875 9.14442C7.22647 9.43958 7.57083 9.58589 7.96183 9.58333M14.8177 19.6842H21.0833C21.3568 19.6842 21.5849 19.5922 21.7676 19.4082C21.9503 19.2242 22.0417 18.9961 22.0417 18.7239C22.0417 18.4518 21.9503 18.2243 21.7676 18.0416C21.5849 17.8589 21.3568 17.7669 21.0833 17.7656H14.8158C14.5437 17.7656 14.3162 17.8576 14.1335 18.0416C13.9508 18.2256 13.8594 18.453 13.8594 18.7239C13.8594 18.9948 13.9508 19.2229 14.1335 19.4082C14.3162 19.5934 14.5443 19.6848 14.8177 19.6823M14.8177 14.375H26.8333C27.1068 14.375 27.3349 14.2836 27.5176 14.1009C27.7003 13.9182 27.7917 13.6901 27.7917 13.4167C27.7917 13.1432 27.7003 12.9151 27.5176 12.7324C27.3349 12.5497 27.1068 12.4583 26.8333 12.4583H14.8158C14.5437 12.4583 14.3162 12.5497 14.1335 12.7324C13.9508 12.9151 13.8594 13.1432 13.8594 13.4167C13.8594 13.6901 13.9508 13.9182 14.1335 14.1009C14.3162 14.2836 14.5443 14.375 14.8177 14.375ZM14.8177 9.06583H26.8333C27.1068 9.06583 27.3349 8.97511 27.5176 8.79367C27.7003 8.61222 27.7917 8.38414 27.7917 8.10942C27.7917 7.83469 27.7003 7.60661 27.5176 7.42517C27.3349 7.24372 27.1068 7.15236 26.8333 7.15108H14.8158C14.5437 7.15108 14.3162 7.24244 14.1335 7.42517C13.9508 7.60789 13.8594 7.83597 13.8594 8.10942C13.8594 8.38286 13.9508 8.61094 14.1335 8.79367C14.3162 8.97639 14.5443 9.06583 14.8177 9.06583ZM5.89758 26.8333L2.63158 30.0993C2.14731 30.5836 1.58764 30.6948 0.952583 30.4328C0.317528 30.1709 0 29.6949 0 29.0049V3.09733C0 2.21439 0.295806 1.47775 0.887417 0.887417C1.47903 0.297083 2.21567 0.00127778 3.09733 0H31.4046C32.2862 0 33.0229 0.295806 33.6145 0.887417C34.2061 1.47903 34.5013 2.21567 34.5 3.09733V23.7379C34.5 24.6196 34.2048 25.3562 33.6145 25.9478C33.0242 26.5394 32.2875 26.8346 31.4046 26.8333H5.89758ZM5.07917 24.9167H31.4046C31.6985 24.9167 31.9687 24.794 32.2153 24.5487C32.4619 24.3033 32.5846 24.0331 32.5833 23.7379V3.09542C32.5833 2.80153 32.4607 2.53128 32.2153 2.28467C31.97 2.03806 31.6997 1.91539 31.4046 1.91667H3.09542C2.80153 1.91667 2.53128 2.03933 2.28467 2.28467C2.03806 2.53 1.91539 2.80025 1.91667 3.09542V28.0696L5.07917 24.9167Z" fill="var(--fill-0, #2BA492)"/>
</svg>
