<svg preserveAspectRatio="none" width="100%" height="100%" overflow="visible" style="display: block;" viewBox="0 0 185 64" fill="none" xmlns="http://www.w3.org/2000/svg">
<g id="rimi-logo">
<path id="Fill 1" fill-rule="evenodd" clip-rule="evenodd" d="M15.1779 64.0002H175.622L184.202 0.000185507H6.67253L0.246104 47.3119C0.246104 47.3119 -3.13632 64.0002 15.1779 64.0002" fill="var(--fill-0, #ED1C24)"/>
<path id="Fill 4" fill-rule="evenodd" clip-rule="evenodd" d="M68.1802 20.1266C68.1802 20.1266 67.8663 22.4835 67.8033 22.7209H60.1594C57.5133 22.7209 57.9549 20.6525 57.9549 20.6525L58.2762 18.7288H66.2044C68.3876 18.7288 68.1802 20.1266 68.1802 20.1266" fill="var(--fill-0, white)"/>
<path id="Fill 6" fill-rule="evenodd" clip-rule="evenodd" d="M65.1231 43.2629H58.5004C56.3246 43.2629 55.3849 41.6972 55.3997 40.4181C55.445 40.4181 57.581 24.7613 57.581 24.7613L65.5268 24.8773C65.5268 24.8773 67.6082 25.0294 67.3276 27.4836C67.2582 28.2368 65.1315 43.006 65.1231 43.2629" fill="var(--fill-0, white)"/>
<path id="Fill 8" fill-rule="evenodd" clip-rule="evenodd" d="M75.7887 24.7597H106.309C107.994 24.7597 113.272 25.3376 112.589 30.3927C111.886 35.5711 110.779 43.2632 110.779 43.2632H104.362C104.362 43.2632 101.38 42.9636 101.718 40.5121C102.001 38.503 102.76 32.3813 102.964 30.8175C103.176 29.1294 101.223 29.2704 101.223 29.2704H98.7622L96.9513 43.2632H90.8489H90.8183C90.8183 43.2632 87.3593 43.5136 87.6944 40.7059C88.0324 37.9076 88.6953 33.1141 88.8721 31.3109C89.0638 29.2824 87.1926 29.3223 87.1926 29.3223L84.7705 29.2704L82.9605 43.2632H73.2074L75.7887 24.7597Z" fill="var(--fill-0, white)"/>
<path id="Fill 10" fill-rule="evenodd" clip-rule="evenodd" d="M42.8399 36.1081V36.0812C42.8399 36.0812 45.9647 35.7983 47.5998 34.7891C49.2395 33.779 49.708 31.5826 49.708 29.5522C49.6756 27.9402 49.3293 23.9879 40.303 23.9879H23.9966L21.4153 43.2343C21.4153 43.2343 28.1658 43.2519 31.5369 43.2631C31.5462 43.2473 32.5887 34.9208 32.5989 34.7891C32.6387 34.7891 37.0727 41.3672 37.0727 41.3672C37.0727 41.3672 38.3911 43.2631 41.8326 43.2631H50.0071C50.0071 43.2631 42.8399 36.1294 42.8399 36.1081M40.1373 31.8099H33.3609L33.8534 28.1312C33.8534 28.1312 38.5689 27.9828 39.2809 28.7026C39.3299 28.7026 40.1373 29.1988 40.1373 30.1932C40.1605 30.1932 40.1373 31.8099 40.1373 31.8099" fill="var(--fill-0, white)"/>
<path id="Fill 12" fill-rule="evenodd" clip-rule="evenodd" d="M131.633 20.0895C131.633 20.0895 131.322 22.4464 131.257 22.6848H123.618C120.966 22.6848 121.406 20.6145 121.406 20.6145L121.732 18.6871H129.662C131.843 18.6871 131.633 20.0895 131.633 20.0895" fill="var(--fill-0, white)"/>
<path id="Fill 14" fill-rule="evenodd" clip-rule="evenodd" d="M128.581 43.2285H121.952C119.777 43.2285 118.845 41.6637 118.854 40.3828C118.902 40.3828 121.032 24.7223 121.032 24.7223L128.975 24.841C128.975 24.841 131.064 24.9866 130.782 27.4455C130.712 28.195 128.585 42.9632 128.581 43.2285" fill="var(--fill-0, white)"/>
<path id="Fill 16" fill-rule="evenodd" clip-rule="evenodd" d="M143.729 15.2978C143.729 15.2978 148.793 13.5364 152.059 14.1105C155.324 14.6819 156.995 17.2567 155.364 22.9805C153.732 28.7034 148.241 39.7281 142.048 44.0273C142.048 44.0273 151.977 22.693 143.729 15.2978" fill="var(--fill-0, white)"/>
<path id="Fill 18" fill-rule="evenodd" clip-rule="evenodd" d="M156.679 17.6733C156.679 17.6733 161.2 16.3868 163.932 17.0824C166.671 17.7772 166.961 20.032 166.465 21.8351C165.965 23.6383 162.229 34.8865 147.474 41.2809C147.474 41.2809 162.913 22.1208 156.679 17.6733" fill="var(--fill-0, #00AEEA)"/>
</g>
</svg>
